# Blender v2.92.0 OBJ File: ''
# www.blender.org
mtllib rockC7.mtl
o rockC2
v -0.476165 1.020000 -1.285812
v 0.313289 0.000000 -1.409639
v -0.556633 0.000000 -1.409639
v -0.135733 2.040000 -1.161985
v 0.152353 2.040000 -1.161985
v -0.565055 2.040000 -0.640757
v -0.659044 0.814482 -0.797818
v -0.721488 0.814482 -0.605636
v -0.476031 2.040000 -0.914744
v -0.691044 0.000000 -0.995967
v -0.948890 0.814482 -0.380784
v -0.942152 0.000000 -0.995966
v -1.157235 0.000000 -0.334008
v -0.813387 0.814482 -0.797818
v -0.624800 0.535910 0.170699
v -0.696427 -0.000000 0.000789
v -0.761615 -0.000000 0.201415
v -0.594139 0.400469 -0.022321
v -0.423036 0.814482 -0.247356
v -0.368316 1.295400 -0.065470
v -0.278428 1.295400 -0.342117
v -0.385856 0.814482 -0.361785
v 0.480201 1.295400 -0.534792
v 0.456550 0.983652 -0.610484
v 0.300279 1.295400 -0.534792
v 0.495350 0.000000 -0.849313
v 0.684589 0.000000 -0.849313
v -0.121672 2.040000 -0.318621
v -0.121672 1.295400 -0.228227
v 0.321711 2.040000 -0.640757
v 0.132188 0.647700 0.693541
v 0.531418 1.295400 0.246223
v 0.132188 1.295400 0.536280
v 0.509856 0.647700 0.419149
v 0.799225 -0.000000 0.366171
v 0.970030 0.219206 0.188851
v 1.025991 -0.000000 0.201415
v -0.594139 0.814482 -0.123043
v 0.307550 0.647700 1.286063
v -0.267041 0.647700 1.117868
v 0.136005 0.219206 1.618773
v 0.632693 1.295400 -0.065470
v 0.136005 -0.000000 1.725219
v -0.427091 0.647700 1.001585
v -0.757798 -0.000000 1.075833
v -0.528672 -0.000000 0.370658
v -0.239304 0.647700 0.423636
v 0.699101 0.647700 1.001585
v 1.029808 -0.000000 1.075833
v -0.267041 1.295400 0.246223
vt 4.686665 8.441013
vt -3.083555 -1.672065
vt 5.478671 -1.672065
vt 1.335955 18.554090
vt -1.499543 18.554090
vt -4.279379 19.143270
vt -5.463724 7.004936
vt -3.474821 7.004936
vt -10.587960 9.040524
vt -7.114877 19.143270
vt -11.502340 -1.062225
vt -7.221223 -1.062225
vt -0.678388 5.611133
vt -6.457476 -2.606773
vt 0.393161 -2.606773
vt -4.994289 5.611133
vt 3.498207 3.975651
vt 2.125572 -1.431021
vt 4.201861 -1.431021
vt 1.598134 2.609215
vt -1.028784 6.786097
vt 0.507385 11.637970
vt -2.355645 11.637970
vt -2.213011 6.786097
vt -4.726386 11.148090
vt -4.493602 7.990560
vt -2.955498 11.148090
vt -4.875493 -1.972341
vt -6.738081 -1.972341
vt -5.165514 8.041553
vt -8.206361 20.161779
vt -9.248816 8.041553
vt -2.812159 20.161779
vt -4.196301 12.797780
vt -2.289204 12.797780
vt 5.484973 12.935380
vt 0.874469 20.299379
vt 0.351514 12.935380
vt 6.268672 20.299379
vt 7.167225 9.852235
vt -2.959746 5.043627
vt 2.807084 11.540450
vt -2.049948 11.540450
vt 1.634967 5.043627
vt 4.245636 -1.453195
vt 6.631560 0.745573
vt 7.004484 -1.453195
vt -5.540921 -0.779275
vt -9.758731 7.391072
vt -11.147120 -0.779275
vt -5.442830 7.391072
vt -4.860126 3.237964
vt 6.461240 -2.516147
vt 0.568503 -2.516147
vt 5.760777 -8.072300
vt -0.688532 9.961878
vt 1.182555 -1.336574
vt 2.537189 9.961878
vt -3.747875 -9.339464
vt -7.852541 -6.486653
vt -7.852541 -8.005777
vt -5.960981 -7.101258
vt -3.560877 -3.797797
vt -1.211052 -5.847826
vt -2.434610 -4.163744
vt 11.063870 -4.735439
vt 2.393633 2.113863
vt 0.189838 -4.735439
vt 4.340805 2.113863
vt 10.448050 -2.417378
vt -11.436860 -1.335955
vt -6.306665 3.166443
vt -11.436860 1.499543
vt -9.003385 -4.685342
vt -6.306665 -5.561560
vt -3.136033 -1.197558
vt 3.545543 11.094530
vt -5.005965 -1.974464
vt 5.868062 -1.974464
vt -4.718145 0.237055
vt -1.311489 11.094530
vt 10.674630 5.422503
vt 5.077609 -1.568684
vt 12.375500 -1.568684
vt 4.693409 5.422503
vt -5.858496 -2.613901
vt -11.501950 4.377285
vt -13.202820 -2.613901
vt -5.474296 4.377285
vt -2.065333 -1.158393
vt -3.987598 4.217107
vt -4.899312 -1.158393
vt -0.701913 11.835250
vt 0.545335 5.338429
vt 4.155119 11.835250
vt 5.064917 5.338429
vt 8.005777 5.933119
vt 6.801608 -2.317256
vt 9.273146 -2.317256
vt 6.486653 5.933119
vt -5.641605 16.426649
vt -3.647200 5.961278
vt -1.501535 16.426649
vt -8.897911 -5.310849
vt -4.991297 1.538453
vt -8.282092 -2.992789
vt 1.976116 -5.310849
vt -0.227679 1.538453
vt 9.858118 -4.203649
vt 6.826186 1.301067
vt 4.169642 -2.355351
vt 9.858118 6.880915
vt 12.658100 3.027067
vt 11.002640 -2.628354
vt 4.125481 5.018269
vt -1.937512 8.718640
vt -4.019153 8.718640
vt -4.601857 4.565533
vt 10.413710 19.398029
vt 6.443634 -0.807472
vt 12.242470 -0.807472
vt 4.326014 8.935266
vt 5.019510 19.398029
vt -0.644389 -3.625157
vt -2.246329 -1.197558
vt -3.367292 -2.740432
vt -0.644389 6.227292
vt 2.423454 5.230489
vt 2.423454 -2.628354
vt 5.278346 1.301067
vt -5.263701 2.955498
vt -5.263701 4.726386
vt -1.733085 10.515720
vt -0.302460 2.415749
vt 1.492636 10.515720
vt -1.982433 10.098340
vt 8.359381 4.875493
vt 8.359381 6.738081
vt 3.287477 -11.390110
vt -0.007765 -6.854597
vt -1.982433 -7.496205
vt -3.604043 7.866385
vt -3.648205 -5.203468
vt -10.588910 10.135910
vt -10.588910 -7.458640
vt -16.980499 1.338633
vt 9.802820 -9.273146
vt 9.802820 -6.801608
vt 13.874400 -5.478671
vt 13.874400 3.083555
vn 0.0000 0.1205 -0.9927
vn -0.9451 0.1118 -0.3071
vn -0.9278 0.2200 -0.3014
vn -0.9278 0.2196 -0.3015
vn 0.0000 0.2359 -0.9718
vn -0.5850 0.0977 0.8051
vn 0.5850 0.0977 0.8051
vn 0.5768 0.1927 0.7938
vn -0.5767 0.1931 0.7938
vn -0.2132 0.6510 0.7285
vn 0.8916 0.3479 0.2897
vn -0.0000 1.0000 0.0000
vn -0.5471 0.3657 0.7530
vn 0.9278 0.2196 -0.3015
vn -0.8672 0.4105 -0.2818
vn 0.8672 0.4105 -0.2818
vn -0.5768 0.1927 0.7938
vn -0.0000 0.2364 -0.9717
vn -0.5639 0.2824 -0.7761
vn 0.5471 0.3657 0.7530
vn 0.5767 0.1931 0.7938
vn 0.9451 0.1118 -0.3071
vn -0.8777 0.3851 0.2852
vn -0.0000 -1.0000 -0.0000
usemtl rock
s 1
f 1/1/1 2/2/1 3/3/1
f 2/2/1 1/1/1 4/4/1
f 2/2/1 4/4/1 5/5/1
f 6/6/2 7/7/2 8/8/2
f 7/7/2 6/6/2 1/9/2
f 1/9/2 6/6/2 9/10/2
f 3/11/2 7/7/2 1/9/2
f 7/7/2 3/11/2 10/12/2
f 11/13/3 12/14/3 13/15/3
f 12/14/3 11/13/3 14/16/3
f 15/17/4 16/18/4 17/19/4
f 16/18/4 15/17/4 18/20/4
f 18/20/4 15/17/4 19/21/4
f 19/21/4 15/17/4 20/22/4
f 21/23/4 19/21/4 20/22/4
f 19/21/4 21/23/4 22/24/4
f 23/25/5 24/26/5 25/27/5
f 24/26/5 23/25/5 26/28/5
f 26/28/5 23/25/5 27/29/5
f 22/30/6 6/31/6 8/32/6
f 6/31/6 22/30/6 28/33/6
f 28/33/6 22/30/6 21/34/6
f 28/33/6 21/34/6 29/35/6
f 25/36/7 28/37/7 29/38/7
f 28/37/7 25/36/7 30/39/7
f 30/39/7 25/36/7 24/40/7
f 31/41/8 32/42/8 33/43/8
f 32/42/8 31/41/8 34/44/8
f 32/42/8 34/44/8 35/45/8
f 32/42/8 35/45/8 36/46/8
f 36/46/8 35/45/8 37/47/8
f 16/48/9 11/49/9 13/50/9
f 11/49/9 16/48/9 38/51/9
f 38/51/9 16/48/9 18/52/9
f 39/53/10 40/54/10 41/55/10
f 32/56/11 36/57/11 42/58/11
f 11/59/12 7/60/12 14/61/12
f 7/60/12 11/59/12 8/62/12
f 8/62/12 11/59/12 22/63/12
f 22/63/12 11/59/12 38/64/12
f 22/63/12 38/64/12 19/65/12
f 43/66/13 44/67/13 45/68/13
f 44/67/13 43/66/13 40/69/13
f 40/69/13 43/66/13 41/70/13
f 4/71/12 30/72/12 5/73/12
f 30/72/12 4/71/12 9/74/12
f 30/72/12 9/74/12 6/75/12
f 30/72/12 6/75/12 28/76/12
f 23/77/14 37/78/14 27/79/14
f 37/78/14 23/77/14 36/80/14
f 36/80/14 23/77/14 42/81/14
f 44/82/15 46/83/15 45/84/15
f 46/83/15 44/82/15 47/85/15
f 35/86/16 48/87/16 49/88/16
f 48/87/16 35/86/16 34/89/16
f 46/90/17 15/91/17 17/92/17
f 15/91/17 46/90/17 50/93/17
f 50/93/17 46/90/17 47/94/17
f 50/93/17 47/94/17 33/95/17
f 33/95/17 47/94/17 31/96/17
f 14/97/18 10/98/18 12/99/18
f 10/98/18 14/97/18 7/100/18
f 4/101/19 1/102/19 9/103/19
f 43/104/20 39/105/20 41/106/20
f 39/105/20 43/104/20 49/107/20
f 39/105/20 49/107/20 48/108/20
f 44/109/12 31/110/12 47/111/12
f 31/110/12 44/109/12 48/112/12
f 48/112/12 44/109/12 39/113/12
f 39/113/12 44/109/12 40/114/12
f 48/112/12 34/115/12 31/110/12
f 19/116/21 38/117/21 18/118/21
f 5/119/22 26/120/22 2/121/22
f 26/120/22 5/119/22 24/122/22
f 24/122/22 5/119/22 30/123/22
f 20/124/12 29/125/12 21/126/12
f 29/125/12 20/124/12 42/127/12
f 42/127/12 20/124/12 32/128/12
f 32/128/12 20/124/12 50/129/12
f 32/128/12 50/129/12 33/130/12
f 42/127/12 25/131/12 29/125/12
f 25/131/12 42/127/12 23/132/12
f 20/133/23 15/134/23 50/135/23
usemtl grass
f 37/136/24 26/137/24 27/138/24
f 26/137/24 37/136/24 13/139/24
f 13/139/24 37/136/24 16/140/24
f 16/140/24 37/136/24 17/141/24
f 17/141/24 37/136/24 35/142/24
f 17/141/24 35/142/24 46/143/24
f 46/143/24 35/142/24 49/144/24
f 46/143/24 49/144/24 45/145/24
f 45/145/24 49/144/24 43/146/24
f 12/147/24 26/137/24 13/139/24
f 10/148/24 26/137/24 12/147/24
f 3/149/24 26/137/24 10/148/24
f 26/137/24 3/149/24 2/150/24
